<svg width="16" height="17" viewBox="0 0 16 17" fill="none" xmlns="http://www.w3.org/2000/svg">
<g id="right-arrow (1) 1" clip-path="url(#clip0_815_208)">
<g id="Group">
<g id="Group_2">
<path id="Vector" d="M12.4449 8.12128L5.32473 1.00121C5.16005 0.836401 4.94021 0.745605 4.70581 0.745605C4.47141 0.745605 4.25157 0.836401 4.08689 1.00121L3.56253 1.52544C3.22133 1.86703 3.22133 2.42221 3.56253 2.76328L9.54154 8.74229L3.5559 14.7279C3.39122 14.8927 3.30029 15.1124 3.30029 15.3467C3.30029 15.5813 3.39122 15.801 3.5559 15.9659L4.08025 16.49C4.24507 16.6548 4.46477 16.7456 4.69918 16.7456C4.93358 16.7456 5.15342 16.6548 5.3181 16.49L12.4449 9.36342C12.61 9.19809 12.7007 8.97734 12.7001 8.74268C12.7007 8.5071 12.61 8.28649 12.4449 8.12128Z" fill="#666666"/>
</g>
</g>
</g>
<defs>
<clipPath id="clip0_815_208">
<rect width="16" height="16" fill="white" transform="translate(0 0.745605)"/>
</clipPath>
</defs>
</svg>
