<svg width="17" height="17" viewBox="0 0 17 17" fill="none" xmlns="http://www.w3.org/2000/svg">
<g id="email 1" clip-path="url(#clip0_847_120)">
<g id="Group">
<g id="Group_2">
<path id="Vector" d="M10.6235 8.44841L16.0175 11.8584V4.89441L10.6235 8.44841Z" fill="#7F7F7F"/>
</g>
</g>
<g id="Group_3">
<g id="Group_4">
<path id="Vector_2" d="M0.0175781 4.89441V11.8584L5.41158 8.44841L0.0175781 4.89441Z" fill="#7F7F7F"/>
</g>
</g>
<g id="Group_5">
<g id="Group_6">
<path id="Vector_3" d="M15.0176 2.86646H1.01762C0.518623 2.86646 0.122623 3.23846 0.0476227 3.71746L8.01762 8.96846L15.9876 3.71746C15.9126 3.23846 15.5166 2.86646 15.0176 2.86646Z" fill="#7F7F7F"/>
</g>
</g>
<g id="Group_7">
<g id="Group_8">
<path id="Vector_4" d="M9.70765 9.05251L8.29265 9.98451C8.20865 10.0395 8.11365 10.0665 8.01765 10.0665C7.92165 10.0665 7.82665 10.0395 7.74265 9.98451L6.32765 9.05151L0.0496521 13.0225C0.126652 13.4975 0.520652 13.8665 1.01765 13.8665H15.0177C15.5147 13.8665 15.9087 13.4975 15.9857 13.0225L9.70765 9.05251Z" fill="#7F7F7F"/>
</g>
</g>
</g>
<defs>
<clipPath id="clip0_847_120">
<rect width="16" height="16" fill="white" transform="translate(0.0175781 0.366455)"/>
</clipPath>
</defs>
</svg>
