<svg width="20" height="21" viewBox="0 0 20 21" fill="none" xmlns="http://www.w3.org/2000/svg">
<g id="facebook 2" clip-path="url(#clip0_847_436)">
<g id="Group">
<path id="Vector" d="M10.001 20.9253C15.5238 20.9253 20.001 16.4481 20.001 10.9253C20.001 5.40245 15.5238 0.925293 10.001 0.925293C4.47813 0.925293 0.000976562 5.40245 0.000976562 10.9253C0.000976562 16.4481 4.47813 20.9253 10.001 20.9253Z" fill="white"/>
<path id="Vector_2" d="M12.515 11.3167H10.7306V17.8538H8.02712V11.3167H6.74133V9.01928H8.02712V7.53259C8.02712 6.46945 8.53213 4.80469 10.7547 4.80469L12.7572 4.81307V7.04309H11.3042C11.0659 7.04309 10.7308 7.16217 10.7308 7.66932V9.02141H12.7512L12.515 11.3167Z" fill="#305F64"/>
</g>
</g>
<defs>
<clipPath id="clip0_847_436">
<rect width="20" height="20" fill="white" transform="translate(0.000976562 0.925293)"/>
</clipPath>
</defs>
</svg>
