<svg width="51" height="51" viewBox="0 0 51 51" fill="none" xmlns="http://www.w3.org/2000/svg">
<g id="free-delivery 1" clip-path="url(#clip0_1072_234)">
<g id="Group">
<path id="Vector" d="M40.9479 20.8842H36.1367V17.642C36.1367 16.833 35.4809 16.1771 34.6719 16.1771H1.72266C0.913672 16.1771 0.257812 16.833 0.257812 17.642V44.3151C0.257812 45.1241 0.913672 45.78 1.72266 45.78H6.71094C8.30508 52.0183 17.1088 52.0141 18.7005 45.78H31.815C33.4092 52.0183 42.2129 52.0141 43.8046 45.78H48.793C49.602 45.78 50.2578 45.1241 50.2578 44.3151V30.194C50.2578 25.0605 46.0813 20.8842 40.9479 20.8842ZM12.7058 47.5573C10.918 47.5573 9.46357 46.1028 9.46357 44.3151C9.6416 40.0139 15.7706 40.0152 15.948 44.3151C15.948 46.1028 14.4935 47.5573 12.7058 47.5573ZM33.207 40.2092C32.5444 40.9511 32.0587 41.8535 31.815 42.8502H18.7005C17.1063 36.6119 8.30264 36.6161 6.71094 42.8502H3.1875V19.1067H33.207V40.2092ZM37.8099 47.5573C36.0221 47.5573 34.5677 46.1028 34.5677 44.3151C34.7457 40.0139 40.8747 40.0152 41.0521 44.3151C41.0521 46.1028 39.5977 47.5573 37.8099 47.5573ZM47.3281 42.8503H43.8063C43.1469 40.1518 40.7086 38.1432 37.81 38.1432H36.1367V23.8138H39.4831V33.3321C39.4831 34.1411 40.139 34.7969 40.9479 34.7969H47.3281V42.8503ZM47.3281 31.8672H42.4128V23.9835C45.2271 24.6472 47.3281 27.18 47.3281 30.194V31.8672Z" fill="#244D4D"/>
<path id="Vector_2" d="M36.2406 12.8307H40.1632C42.1067 12.7533 42.1053 9.97772 40.1632 9.90106H37.9698L38.266 8.12372H40.1632C42.1067 8.04628 42.1053 5.27069 40.1632 5.19403H38.7543L39.0505 3.41669H41.7321C43.6757 3.33925 43.6742 0.56366 41.7321 0.487H37.8096C37.0935 0.487 36.4823 1.00468 36.3647 1.71102L34.7957 11.1251C34.6469 12.0182 35.3367 12.8307 36.2406 12.8307Z" fill="#222222"/>
<path id="Vector_3" d="M26.8267 12.8307H30.7492C32.6928 12.7533 32.6913 9.97772 30.7492 9.90106H28.5559L28.8521 8.12372H30.7492C32.6928 8.04628 32.6913 5.27069 30.7492 5.19403H29.3404L29.6367 3.41669H32.3183C34.2618 3.33925 34.2604 0.56366 32.3183 0.487H28.3958C27.6797 0.487 27.0686 1.00468 26.9509 1.71102L25.3818 11.1251C25.233 12.0182 25.9229 12.8307 26.8267 12.8307Z" fill="#244D4D"/>
<path id="Vector_4" d="M15.6029 12.8108C16.7402 13.0004 17.2206 12.0149 17.2887 11.6067L17.5289 10.1655L20.4128 12.5037C21.0794 13.044 21.9954 12.8778 22.4732 12.2884C22.9828 11.6599 22.8863 10.7375 22.2579 10.228L20.6299 8.90819H21.9888C22.7048 8.90819 23.3159 8.39051 23.4337 7.68426L24.3492 2.19276C24.498 1.2996 23.8082 0.487 22.9043 0.487H17.4128C16.6967 0.487 16.0855 1.00468 15.9679 1.71102L15.0588 7.16512C15.0584 7.16708 15.0582 7.16913 15.0578 7.17108C15.057 7.17499 15.0565 7.17889 15.0558 7.1828C15.0526 7.20067 15.0494 7.21864 15.0469 7.23671L14.3987 11.1251C14.2657 11.923 14.8049 12.6778 15.6029 12.8108ZM18.6537 3.41669H21.175L20.7479 5.9785H18.2266L18.6537 3.41669Z" fill="#244D4D"/>
<path id="Vector_5" d="M6.97327 12.8109C8.11057 13.0004 8.59094 12.0149 8.65901 11.6067L9.10871 8.90831H11.1365C13.0801 8.83087 13.0786 6.05529 11.1365 5.97863H9.597L10.0239 3.41681H12.7056C14.6491 3.33937 14.6477 0.563782 12.7056 0.487122H8.78303C8.06692 0.487122 7.45578 1.0048 7.33811 1.71114L5.76916 11.1252C5.63606 11.9231 6.17522 12.6778 6.97327 12.8109Z" fill="#244D4D"/>
</g>
</g>
<defs>
<clipPath id="clip0_1072_234">
<rect width="50" height="50" fill="white" transform="translate(0.257812 0.472046)"/>
</clipPath>
</defs>
</svg>
