<svg width="20" height="21" viewBox="0 0 20 21" fill="none" xmlns="http://www.w3.org/2000/svg">
<g id="instagram 1" clip-path="url(#clip0_847_447)">
<path id="Vector" d="M11.915 10.9253C11.915 11.9824 11.0581 12.8394 10.001 12.8394C8.94385 12.8394 8.08691 11.9824 8.08691 10.9253C8.08691 9.86816 8.94385 9.01123 10.001 9.01123C11.0581 9.01123 11.915 9.86816 11.915 10.9253Z" fill="white"/>
<path id="Vector_2" d="M14.4773 7.53873C14.3853 7.2894 14.2385 7.06372 14.0478 6.87848C13.8625 6.68774 13.637 6.54095 13.3875 6.44894C13.1852 6.37036 12.8812 6.27682 12.3214 6.25134C11.7158 6.22372 11.5342 6.21777 10.001 6.21777C8.46762 6.21777 8.28604 6.22357 7.68057 6.25119C7.12073 6.27682 6.81662 6.37036 6.61444 6.44894C6.36496 6.54095 6.13928 6.68774 5.95419 6.87848C5.76346 7.06372 5.61667 7.28925 5.52451 7.53873C5.44592 7.74106 5.35239 8.04517 5.3269 8.60501C5.29929 9.21048 5.29333 9.39206 5.29333 10.9254C5.29333 12.4586 5.29929 12.6402 5.3269 13.2458C5.35239 13.8057 5.44592 14.1096 5.52451 14.312C5.61667 14.5614 5.76331 14.787 5.95404 14.9722C6.13928 15.1629 6.36481 15.3097 6.61429 15.4017C6.81662 15.4805 7.12073 15.574 7.68057 15.5995C8.28604 15.6271 8.46747 15.6329 10.0008 15.6329C11.5343 15.6329 11.7159 15.6271 12.3212 15.5995C12.8811 15.574 13.1852 15.4805 13.3875 15.4017C13.8883 15.2086 14.2841 14.8127 14.4773 14.312C14.5559 14.1096 14.6494 13.8057 14.675 13.2458C14.7027 12.6402 14.7085 12.4586 14.7085 10.9254C14.7085 9.39206 14.7027 9.21048 14.675 8.60501C14.6496 8.04517 14.556 7.74106 14.4773 7.53873ZM10.001 13.8739C8.37241 13.8739 7.05222 12.5538 7.05222 10.9253C7.05222 9.29669 8.37241 7.97665 10.001 7.97665C11.6294 7.97665 12.9496 9.29669 12.9496 10.9253C12.9496 12.5538 11.6294 13.8739 10.001 13.8739ZM13.0662 8.54916C12.6856 8.54916 12.3771 8.24063 12.3771 7.86008C12.3771 7.47952 12.6856 7.17099 13.0662 7.17099C13.4467 7.17099 13.7552 7.47952 13.7552 7.86008C13.7551 8.24063 13.4467 8.54916 13.0662 8.54916Z" fill="white"/>
<path id="Vector_3" d="M10.001 0.925293C4.47897 0.925293 0.000976562 5.40329 0.000976562 10.9253C0.000976562 16.4473 4.47897 20.9253 10.001 20.9253C15.523 20.9253 20.001 16.4473 20.001 10.9253C20.001 5.40329 15.523 0.925293 10.001 0.925293ZM15.7085 13.2927C15.6808 13.904 15.5836 14.3213 15.4417 14.6866C15.1433 15.4579 14.5336 16.0677 13.7623 16.366C13.3971 16.5079 12.9796 16.6049 12.3685 16.6328C11.7562 16.6608 11.5606 16.6675 10.0011 16.6675C8.44153 16.6675 8.24606 16.6608 7.63358 16.6328C7.02246 16.6049 6.60498 16.5079 6.23984 16.366C5.85654 16.2218 5.50955 15.9958 5.22269 15.7036C4.93063 15.4169 4.70465 15.0697 4.56046 14.6866C4.41855 14.3214 4.32135 13.904 4.29358 13.2928C4.26535 12.6804 4.25879 12.4847 4.25879 10.9253C4.25879 9.36584 4.26535 9.17023 4.29343 8.55789C4.3212 7.94662 4.41824 7.5293 4.56015 7.164C4.70435 6.78085 4.93048 6.43372 5.22269 6.147C5.5094 5.8548 5.85654 5.62881 6.23969 5.48462C6.60498 5.34271 7.02231 5.24567 7.63358 5.21774C8.24591 5.18982 8.44153 5.18311 10.001 5.18311C11.5604 5.18311 11.756 5.18982 12.3684 5.2179C12.9796 5.24567 13.397 5.34271 13.7623 5.48447C14.1454 5.62866 14.4926 5.8548 14.7794 6.147C15.0715 6.43387 15.2976 6.78085 15.4417 7.164C15.5837 7.5293 15.6808 7.94662 15.7087 8.55789C15.7366 9.17023 15.7432 9.36584 15.7432 10.9253C15.7432 12.4847 15.7366 12.6804 15.7085 13.2927Z" fill="white"/>
</g>
<defs>
<clipPath id="clip0_847_447">
<rect width="20" height="20" fill="white" transform="translate(0.000976562 0.925293)"/>
</clipPath>
</defs>
</svg>
