<svg width="51" height="51" viewBox="0 0 51 51" fill="none" xmlns="http://www.w3.org/2000/svg">
<g id="shield 3" clip-path="url(#clip0_1072_224)">
<g id="surface1">
<path id="Vector" d="M46.4967 14.0382L46.4952 13.9993C46.4734 13.519 46.4589 13.0109 46.4502 12.4456C46.4093 9.68868 44.2178 7.40826 41.4606 7.25415C35.7118 6.93334 31.2647 5.0588 27.4649 1.35512L27.4324 1.32422C26.193 0.187825 24.3235 0.187825 23.0837 1.32422L23.0513 1.35512C19.2514 5.0588 14.8043 6.93334 9.05556 7.25453C6.29868 7.40826 4.10676 9.68868 4.06595 12.4459C4.05755 13.0075 4.04268 13.5156 4.02093 13.9993L4.01864 14.0897C3.90687 19.9517 3.76802 27.2473 6.20866 33.8692C7.55066 37.5107 9.58313 40.6761 12.2492 43.2781C15.2857 46.2414 19.2629 48.5939 24.0702 50.2701C24.2266 50.3246 24.3891 50.3689 24.5546 50.4021C24.7881 50.4486 25.0231 50.4719 25.2581 50.4719C25.493 50.4719 25.7284 50.4486 25.9615 50.4021C26.127 50.3689 26.2907 50.3243 26.4479 50.2693C31.2494 48.5901 35.2224 46.2364 38.2562 43.2736C40.9212 40.6708 42.9536 37.5046 44.2968 33.8624C46.7466 27.2206 46.6081 19.9113 46.4967 14.0382ZM41.5441 32.8473C38.9699 39.8266 33.7152 44.6198 25.4797 47.4999C25.4503 47.5098 25.419 47.5186 25.3866 47.525C25.3015 47.5418 25.2149 47.5418 25.1287 47.5247C25.0967 47.5182 25.0654 47.5098 25.0364 47.4999C16.7921 44.6251 11.534 39.8346 8.96171 32.8549C6.71219 26.751 6.8396 20.054 6.95214 14.1458L6.9529 14.113C6.97579 13.6052 6.99105 13.0735 6.99944 12.489C7.01775 11.2649 7.99278 10.2521 9.21921 10.1838C12.4724 10.0023 15.3303 9.37359 17.9564 8.26199C20.579 7.15192 22.9082 5.58713 25.0765 3.47837C25.1867 3.3853 25.3298 3.38491 25.4396 3.47837C27.6083 5.58713 29.9375 7.15192 32.5597 8.26199C35.1858 9.37359 38.0437 10.0023 41.2973 10.1838C42.5237 10.2521 43.4987 11.2649 43.5167 12.4894C43.5254 13.0769 43.5407 13.6087 43.5636 14.113C43.6757 20.028 43.8001 26.7304 41.5441 32.8473Z" fill="#244D4D"/>
<path id="Vector_2" d="M25.2572 13.0121C18.3861 13.0121 12.7964 18.6021 12.7964 25.4728C12.7964 32.3438 18.3861 37.9339 25.2572 37.9339C32.1278 37.9339 37.7179 32.3438 37.7179 25.4728C37.7179 18.6021 32.1278 13.0121 25.2572 13.0121ZM25.2572 34.9996C20.0039 34.9996 15.7303 30.726 15.7303 25.4728C15.7303 20.2196 20.0039 15.946 25.2572 15.946C30.51 15.946 34.7836 20.2196 34.7836 25.4728C34.7836 30.726 30.51 34.9996 25.2572 34.9996Z" fill="#244D4D"/>
<path id="Vector_3" d="M28.8384 21.6043L23.0507 27.392L21.4798 25.8211C20.9069 25.2481 19.978 25.2481 19.405 25.8211C18.8324 26.3941 18.8324 27.3229 19.405 27.8955L22.0135 30.504C22.3 30.7905 22.6754 30.9336 23.0507 30.9336C23.4261 30.9336 23.8015 30.7905 24.0879 30.504L30.9132 23.6788C31.4858 23.1058 31.4858 22.1769 30.9132 21.6043C30.3402 21.031 29.4114 21.031 28.8384 21.6043Z" fill="#244D4D"/>
</g>
</g>
<defs>
<clipPath id="clip0_1072_224">
<rect width="50" height="50" fill="white" transform="translate(0.257812 0.472046)"/>
</clipPath>
</defs>
</svg>
