<svg width="17" height="17" viewBox="0 0 17 17" fill="none" xmlns="http://www.w3.org/2000/svg">
<g id="star 2" clip-path="url(#clip0_1072_396)">
<path id="Vector" d="M16.891 6.18216C16.7862 5.85817 16.4989 5.62806 16.1589 5.59742L11.5409 5.1781L9.71477 0.903944C9.58012 0.590703 9.27347 0.387939 8.93277 0.387939C8.59206 0.387939 8.28541 0.590703 8.15077 0.904676L6.32467 5.1781L1.7059 5.59742C1.36653 5.6288 1.0799 5.85817 0.974555 6.18216C0.869206 6.50614 0.966498 6.86149 1.22322 7.0855L4.71391 10.1469L3.68459 14.681C3.60927 15.0144 3.73866 15.359 4.01528 15.559C4.16397 15.6664 4.33792 15.7211 4.51334 15.7211C4.66459 15.7211 4.81462 15.6803 4.94927 15.5998L8.93277 13.219L12.9148 15.5998C13.2062 15.7751 13.5735 15.7591 13.8495 15.559C14.1263 15.3584 14.2555 15.0137 14.1802 14.681L13.1509 10.1469L16.6416 7.08611C16.8983 6.86149 16.9963 6.50675 16.891 6.18216Z" fill="#FFB624"/>
</g>
<defs>
<clipPath id="clip0_1072_396">
<rect width="16" height="16" fill="white" transform="translate(0.932617 0.0446777)"/>
</clipPath>
</defs>
</svg>
