<svg width="20" height="21" viewBox="0 0 20 21" fill="none" xmlns="http://www.w3.org/2000/svg">
<g id="twitter 2" clip-path="url(#clip0_847_441)">
<g id="Group">
<path id="Vector" d="M10.0019 20.9251C15.5247 20.9251 20.0018 16.448 20.0018 10.9252C20.0018 5.40241 15.5247 0.925293 10.0019 0.925293C4.47907 0.925293 0.00195312 5.40241 0.00195312 10.9252C0.00195312 16.448 4.47907 20.9251 10.0019 20.9251Z" fill="white"/>
<g id="Group_2">
<path id="Vector_2" d="M16.1263 8.11185C15.6978 8.30188 15.2368 8.4304 14.7534 8.4878C15.247 8.19207 15.6258 7.72414 15.8046 7.16566C15.3427 7.43964 14.8309 7.6384 14.2867 7.74553C13.8507 7.28117 13.2295 6.99097 12.5416 6.99097C11.2218 6.99097 10.1513 8.06141 10.1513 9.38123C10.1513 9.56858 10.1725 9.75093 10.2135 9.92598C8.22703 9.82634 6.46566 8.8748 5.28666 7.42823C5.08095 7.78118 4.96295 8.19207 4.96295 8.63005C4.96295 9.45913 5.38524 10.1911 6.02626 10.6196C5.63462 10.6073 5.26581 10.4998 4.9437 10.3203C4.94352 10.3305 4.94352 10.3406 4.94352 10.3506C4.94352 11.5087 5.76778 12.4747 6.86104 12.6941C6.66068 12.7491 6.44908 12.7781 6.23143 12.7781C6.07706 12.7781 5.9275 12.7633 5.78169 12.7355C6.08579 13.6849 6.96835 14.376 8.01454 14.3954C7.19634 15.0366 6.16583 15.4186 5.04566 15.4186C4.85314 15.4186 4.66241 15.4074 4.47577 15.3851C5.53302 16.0636 6.78973 16.4591 8.1395 16.4591C12.5361 16.4591 14.9404 12.817 14.9404 9.65806C14.9404 9.55449 14.9381 9.45128 14.9334 9.34896C15.4008 9.01205 15.806 8.59119 16.1263 8.11185Z" fill="#305F64"/>
</g>
</g>
</g>
<defs>
<clipPath id="clip0_847_441">
<rect width="20" height="20" fill="white" transform="translate(0.000976562 0.925293)"/>
</clipPath>
</defs>
</svg>
